Cantarell-Regular_20180620.ufo
<glyph name="parenleft" format="2">
	<unicode hex="0028"/>
	<advance width="308"/>
	<outline>
		<contour>
			<point x="206" y="-179" type="curve"/>
			<point x="264" y="-148" type="line"/>
			<point x="180" y="1"/>
			<point x="146" y="124"/>
			<point x="146" y="299" type="curve" smooth="yes"/>
			<point x="146" y="448"/>
			<point x="179" y="566"/>
			<point x="262" y="718" type="curve"/>
			<point x="204" y="749" type="line"/>
			<point x="105" y="582"/>
			<point x="66" y="452"/>
			<point x="66" y="292" type="curve" smooth="yes"/>
			<point x="66" y="106"/>
			<point x="106" y="-23"/>
		</contour>
	</outline>
</glyph>
<glyph name="plus" format="2">
	<unicode hex="002B"/>
	<advance width="650"/>
	<outline>
		<contour>
			<point x="293" y="62" type="line"/>
			<point x="363" y="62" type="line"/>
			<point x="363" y="590" type="line"/>
			<point x="293" y="590" type="line"/>
		</contour>
		<contour>
			<point x="73" y="296" type="line"/>
			<point x="577" y="296" type="line"/>
			<point x="577" y="365" type="line"/>
			<point x="73" y="365" type="line"/>
		</contour>
	</outline>
</glyph>
<glyph name="hyphen" format="2">
	<unicode hex="002D"/>
	<advance width="460"/>
	<outline>
		<contour>
			<point x="85" y="220" type="line"/>
			<point x="375" y="220" type="line"/>
			<point x="375" y="287" type="line"/>
			<point x="85" y="287" type="line"/>
		</contour>
	</outline>
</glyph>
<glyph name="equal" format="2">
	<unicode hex="003D"/>
	<advance width="719"/>
	<outline>
		<contour>
			<point x="127" y="406" type="line"/>
			<point x="592" y="406" type="line"/>
			<point x="592" y="475" type="line"/>
			<point x="127" y="475" type="line"/>
		</contour>
		<contour>
			<point x="127" y="166" type="line"/>
			<point x="592" y="166" type="line"/>
			<point x="592" y="235" type="line"/>
			<point x="127" y="235" type="line"/>
		</contour>
	</outline>
</glyph>
<glyph name="question" format="2">
	<unicode hex="003F"/>
	<advance width="449"/>
	<outline>
		<contour>
			<point x="180" y="195" type="line"/>
			<point x="256" y="195" type="line"/>
			<point x="256" y="248" type="line" smooth="yes"/>
			<point x="256" y="357"/>
			<point x="417" y="399"/>
			<point x="417" y="541" type="curve" smooth="yes"/>
			<point x="417" y="639"/>
			<point x="339" y="704"/>
			<point x="221" y="704" type="curve" smooth="yes"/>
			<point x="155" y="704"/>
			<point x="82" y="684"/>
			<point x="23" y="651" type="curve"/>
			<point x="42" y="590" type="line"/>
			<point x="96" y="617"/>
			<point x="150" y="631"/>
			<point x="200" y="631" type="curve" smooth="yes"/>
			<point x="283" y="631"/>
			<point x="332" y="592"/>
			<point x="332" y="532" type="curve" smooth="yes"/>
			<point x="332" y="427"/>
			<point x="180" y="391"/>
			<point x="180" y="248" type="curve" smooth="yes"/>
		</contour>
		<contour>
			<point x="222" y="-10" type="curve" smooth="yes"/>
			<point x="260" y="-10"/>
			<point x="286" y="17"/>
			<point x="286" y="54" type="curve" smooth="yes"/>
			<point x="286" y="91"/>
			<point x="260" y="118"/>
			<point x="222" y="118" type="curve" smooth="yes"/>
			<point x="184" y="118"/>
			<point x="158" y="91"/>
			<point x="158" y="54" type="curve" smooth="yes"/>
			<point x="158" y="17"/>
			<point x="184" y="-10"/>
		</contour>
	</outline>
</glyph>
<glyph name="at" format="2">
	<unicode hex="0040"/>
	<advance width="1008"/>
	<outline>
		<contour>
			<point x="501" y="-162" type="curve" smooth="yes"/>
			<point x="575" y="-162"/>
			<point x="641" y="-147"/>
			<point x="690" y="-126" type="curve"/>
			<point x="672" y="-66" type="line"/>
			<point x="625" y="-85"/>
			<point x="565" y="-96"/>
			<point x="507" y="-96" type="curve" smooth="yes"/>
			<point x="299" y="-96"/>
			<point x="158" y="48"/>
			<point x="158" y="263" type="curve" smooth="yes"/>
			<point x="158" y="483"/>
			<point x="306" y="636"/>
			<point x="525" y="636" type="curve" smooth="yes"/>
			<point x="727" y="636"/>
			<point x="854" y="507"/>
			<point x="854" y="318" type="curve" smooth="yes"/>
			<point x="854" y="203"/>
			<point x="807" y="120"/>
			<point x="735" y="120" type="curve" smooth="yes"/>
			<point x="705" y="120"/>
			<point x="681" y="137"/>
			<point x="681" y="172" type="curve"/>
			<point x="599" y="173" type="line"/>
			<point x="599" y="99"/>
			<point x="653" y="57"/>
			<point x="726" y="57" type="curve" smooth="yes"/>
			<point x="847" y="57"/>
			<point x="927" y="170"/>
			<point x="927" y="333" type="curve" smooth="yes"/>
			<point x="927" y="561"/>
			<point x="769" y="704"/>
			<point x="534" y="704" type="curve" smooth="yes"/>
			<point x="265" y="704"/>
			<point x="84" y="517"/>
			<point x="84" y="256" type="curve" smooth="yes"/>
			<point x="84" y="0"/>
			<point x="257" y="-162"/>
		</contour>
		<contour>
			<point x="472" y="50" type="curve" smooth="yes"/>
			<point x="530" y="50"/>
			<point x="584" y="79"/>
			<point x="622" y="119" type="curve"/>
			<point x="600" y="174" type="line"/>
			<point x="577" y="142"/>
			<point x="535" y="119"/>
			<point x="495" y="119" type="curve" smooth="yes"/>
			<point x="434" y="119"/>
			<point x="392" y="171"/>
			<point x="392" y="259" type="curve" smooth="yes"/>
			<point x="392" y="350"/>
			<point x="437" y="417"/>
			<point x="507" y="417" type="curve" smooth="yes"/>
			<point x="552" y="417"/>
			<point x="597" y="387"/>
			<point x="616" y="340" type="curve"/>
			<point x="639" y="412" type="line"/>
			<point x="612" y="459"/>
			<point x="565" y="484"/>
			<point x="510" y="484" type="curve" smooth="yes"/>
			<point x="403" y="484"/>
			<point x="305" y="391"/>
			<point x="305" y="248" type="curve" smooth="yes"/>
			<point x="305" y="129"/>
			<point x="375" y="50"/>
		</contour>
		<contour>
			<point x="598" y="159" type="line"/>
			<point x="680" y="159" type="line"/>
			<point x="701" y="472" type="line"/>
			<point x="634" y="472" type="line"/>
			<point x="613" y="389" type="line"/>
		</contour>
	</outline>
</glyph>
<glyph name="A" format="2">
	<unicode hex="0041"/>
	<advance width="699"/>
	<outline>
		<contour>
			<point x="43" y="0" type="line"/>
			<point x="130" y="0" type="line"/>
			<point x="357" y="636" type="line"/>
			<point x="348" y="636" type="line"/>
			<point x="562" y="0" type="line"/>
			<point x="655" y="0" type="line"/>
			<point x="411" y="694" type="line"/>
			<point x="303" y="694" type="line"/>
		</contour>
		<contour>
			<point x="174" y="206" type="line"/>
			<point x="521" y="206" type="line"/>
			<point x="521" y="278" type="line"/>
			<point x="174" y="278" type="line"/>
		</contour>
	</outline>
	<anchor name="bottom" x="350" y="0"/>
	<anchor name="ogonek" x="633" y="10"/>
	<anchor name="top" x="350" y="694"/>
	<note>
		A
	</note>
</glyph>
<glyph name="D" format="2">
	<unicode hex="0044"/>
	<advance width="737"/>
	<outline>
		<contour>
			<point x="106" y="0" type="line"/>
			<point x="318" y="0" type="line" smooth="yes"/>
			<point x="528" y="0"/>
			<point x="671" y="137"/>
			<point x="671" y="360" type="curve" smooth="yes"/>
			<point x="671" y="570"/>
			<point x="545" y="694"/>
			<point x="333" y="694" type="curve" smooth="yes"/>
			<point x="106" y="694" type="line"/>
		</contour>
		<contour>
			<point x="189" y="72" type="line"/>
			<point x="189" y="622" type="line"/>
			<point x="323" y="622" type="line" smooth="yes"/>
			<point x="492" y="622"/>
			<point x="586" y="523"/>
			<point x="586" y="347" type="curve" smooth="yes"/>
			<point x="586" y="172"/>
			<point x="493" y="72"/>
			<point x="328" y="72" type="curve" smooth="yes"/>
		</contour>
	</outline>
	<anchor name="bottom" x="336" y="0"/>
	<anchor name="center" x="173" y="347"/>
	<anchor name="top" x="336" y="694"/>
	<note>
		D
	</note>
</glyph>
<glyph name="T" format="2">
	<unicode hex="0054"/>
	<advance width="634"/>
	<outline>
		<contour>
			<point x="275" y="0" type="line"/>
			<point x="358" y="0" type="line"/>
			<point x="358" y="660" type="line"/>
			<point x="275" y="660" type="line"/>
		</contour>
		<contour>
			<point x="44" y="622" type="line"/>
			<point x="590" y="622" type="line"/>
			<point x="590" y="694" type="line"/>
			<point x="44" y="694" type="line"/>
		</contour>
	</outline>
	<anchor name="bottom" x="317" y="0"/>
	<anchor name="center" x="317" y="347"/>
	<anchor name="top" x="317" y="694"/>
	<note>
		T
	</note>
</glyph>
<glyph name="X" format="2">
	<unicode hex="0058"/>
	<advance width="649"/>
	<outline>
		<contour>
			<point x="519" y="0" type="line"/>
			<point x="618" y="0" type="line"/>
			<point x="353" y="383" type="line"/>
			<point x="151" y="694" type="line"/>
			<point x="52" y="694" type="line"/>
			<point x="297" y="331" type="line"/>
		</contour>
		<contour>
			<point x="32" y="0" type="line"/>
			<point x="126" y="0" type="line"/>
			<point x="329" y="309" type="line"/>
			<point x="286" y="373" type="line"/>
		</contour>
		<contour>
			<point x="357" y="351" type="line"/>
			<point x="592" y="694" type="line"/>
			<point x="498" y="694" type="line"/>
			<point x="314" y="415" type="line"/>
		</contour>
	</outline>
	<anchor name="bottom" x="325" y="0"/>
	<anchor name="top" x="325" y="694"/>
	<note>
		X
	</note>
</glyph>
<glyph name="a" format="2">
	<unicode hex="0061"/>
	<advance width="515"/>
	<outline>
		<contour>
			<point x="383" y="0" type="line"/>
			<point x="439" y="0" type="line"/>
			<point x="439" y="313" type="line" smooth="yes"/>
			<point x="439" y="428"/>
			<point x="371" y="492"/>
			<point x="245" y="492" type="curve" smooth="yes"/>
			<point x="182" y="492"/>
			<point x="114" y="475"/>
			<point x="62" y="446" type="curve"/>
			<point x="82" y="387" type="line"/>
			<point x="132" y="409"/>
			<point x="182" y="420"/>
			<point x="229" y="420" type="curve" smooth="yes"/>
			<point x="315" y="420"/>
			<point x="359" y="384"/>
			<point x="359" y="313" type="curve" smooth="yes"/>
			<point x="359" y="56" type="line"/>
		</contour>
		<contour>
			<point x="212" y="-10" type="curve" smooth="yes"/>
			<point x="327" y="-10"/>
			<point x="414" y="62"/>
			<point x="428" y="169" type="curve"/>
			<point x="399" y="183" type="line"/>
			<point x="384" y="109"/>
			<point x="318" y="60"/>
			<point x="235" y="60" type="curve" smooth="yes"/>
			<point x="171" y="60"/>
			<point x="129" y="92"/>
			<point x="129" y="140" type="curve" smooth="yes"/>
			<point x="129" y="201"/>
			<point x="200" y="226"/>
			<point x="371" y="226" type="curve"/>
			<point x="371" y="281" type="line"/>
			<point x="146" y="281"/>
			<point x="49" y="236"/>
			<point x="49" y="131" type="curve" smooth="yes"/>
			<point x="49" y="45"/>
			<point x="113" y="-10"/>
		</contour>
	</outline>
	<anchor name="bottom" x="263" y="0"/>
	<anchor name="ogonek" x="417" y="10"/>
	<anchor name="top" x="248" y="482"/>
	<note>
		a
	</note>
</glyph>
<glyph name="b" format="2">
	<unicode hex="0062"/>
	<advance width="573"/>
	<outline>
		<contour>
			<point x="85" y="0" type="line"/>
			<point x="141" y="0" type="line"/>
			<point x="165" y="56" type="line"/>
			<point x="165" y="739" type="line"/>
			<point x="85" y="739" type="line"/>
		</contour>
		<contour>
			<point x="290" y="-10" type="curve" smooth="yes"/>
			<point x="428" y="-10"/>
			<point x="520" y="93"/>
			<point x="520" y="247" type="curve" smooth="yes"/>
			<point x="520" y="394"/>
			<point x="432" y="492"/>
			<point x="300" y="492" type="curve" smooth="yes"/>
			<point x="208" y="492"/>
			<point x="141" y="445"/>
			<point x="109" y="364" type="curve"/>
			<point x="139" y="320" type="line"/>
			<point x="161" y="384"/>
			<point x="213" y="422"/>
			<point x="281" y="422" type="curve" smooth="yes"/>
			<point x="377" y="422"/>
			<point x="440" y="346"/>
			<point x="440" y="235" type="curve" smooth="yes"/>
			<point x="440" y="130"/>
			<point x="383" y="60"/>
			<point x="290" y="60" type="curve" smooth="yes"/>
			<point x="223" y="60"/>
			<point x="171" y="96"/>
			<point x="145" y="155" type="curve"/>
			<point x="108" y="111" type="line"/>
			<point x="139" y="33"/>
			<point x="202" y="-10"/>
		</contour>
	</outline>
	<anchor name="bottom" x="285" y="0"/>
	<anchor name="top" x="285" y="482"/>
	<note>
		b
	</note>
</glyph>
<glyph name="c" format="2">
	<unicode hex="0063"/>
	<advance width="466"/>
	<outline>
		<contour>
			<point x="273" y="-10" type="curve" smooth="yes"/>
			<point x="331" y="-10"/>
			<point x="391" y="4"/>
			<point x="431" y="28" type="curve"/>
			<point x="413" y="86" type="line"/>
			<point x="373" y="67"/>
			<point x="329" y="56"/>
			<point x="292" y="56" type="curve" smooth="yes"/>
			<point x="192" y="56"/>
			<point x="135" y="126"/>
			<point x="135" y="243" type="curve" smooth="yes"/>
			<point x="135" y="359"/>
			<point x="191" y="422"/>
			<point x="291" y="422" type="curve" smooth="yes"/>
			<point x="329" y="422"/>
			<point x="372" y="413"/>
			<point x="412" y="395" type="curve"/>
			<point x="431" y="460" type="line"/>
			<point x="387" y="481"/>
			<point x="340" y="492"/>
			<point x="292" y="492" type="curve" smooth="yes"/>
			<point x="149" y="492"/>
			<point x="53" y="386"/>
			<point x="53" y="227" type="curve" smooth="yes"/>
			<point x="53" y="78"/>
			<point x="135" y="-10"/>
		</contour>
	</outline>
	<anchor name="bottom" x="249" y="0"/>
	<anchor name="top" x="269" y="482"/>
	<note>
		c
	</note>
</glyph>
<glyph name="g" format="2">
	<unicode hex="0067"/>
	<advance width="573"/>
	<outline>
		<contour>
			<point x="259" y="-227" type="curve" smooth="yes"/>
			<point x="398" y="-227"/>
			<point x="489" y="-131"/>
			<point x="489" y="14" type="curve" smooth="yes"/>
			<point x="489" y="482" type="line"/>
			<point x="433" y="482" type="line"/>
			<point x="409" y="417" type="line"/>
			<point x="409" y="2" type="line" smooth="yes"/>
			<point x="409" y="-105"/>
			<point x="361" y="-158"/>
			<point x="265" y="-158" type="curve" smooth="yes"/>
			<point x="222" y="-158"/>
			<point x="170" y="-147"/>
			<point x="125" y="-128" type="curve"/>
			<point x="108" y="-189" type="line"/>
			<point x="158" y="-214"/>
			<point x="209" y="-227"/>
		</contour>
		<contour>
			<point x="269" y="-10" type="curve" smooth="yes"/>
			<point x="350" y="-10"/>
			<point x="413" y="30"/>
			<point x="450" y="96" type="curve"/>
			<point x="421" y="132" type="line"/>
			<point x="394" y="87"/>
			<point x="349" y="60"/>
			<point x="292" y="60" type="curve" smooth="yes"/>
			<point x="196" y="60"/>
			<point x="134" y="135"/>
			<point x="134" y="246" type="curve" smooth="yes"/>
			<point x="134" y="352"/>
			<point x="190" y="422"/>
			<point x="283" y="422" type="curve" smooth="yes"/>
			<point x="344" y="422"/>
			<point x="392" y="394"/>
			<point x="420" y="346" type="curve"/>
			<point x="457" y="390" type="line"/>
			<point x="422" y="455"/>
			<point x="360" y="492"/>
			<point x="279" y="492" type="curve" smooth="yes"/>
			<point x="145" y="492"/>
			<point x="54" y="391"/>
			<point x="54" y="238" type="curve" smooth="yes"/>
			<point x="54" y="89"/>
			<point x="140" y="-10"/>
		</contour>
	</outline>
	<anchor name="bottom" x="289" y="0"/>
	<anchor name="top" x="279" y="482"/>
	<note>
		g
	</note>
</glyph>
<glyph name="n" format="2">
	<unicode hex="006E"/>
	<advance width="570"/>
	<outline>
		<contour>
			<point x="85" y="0" type="line"/>
			<point x="165" y="0" type="line"/>
			<point x="165" y="426" type="line"/>
			<point x="141" y="482" type="line"/>
			<point x="85" y="482" type="line"/>
		</contour>
		<contour>
			<point x="414" y="0" type="line"/>
			<point x="494" y="0" type="line"/>
			<point x="494" y="316" type="line" smooth="yes"/>
			<point x="494" y="423"/>
			<point x="423" y="492"/>
			<point x="315" y="492" type="curve" smooth="yes"/>
			<point x="245" y="492"/>
			<point x="176" y="462"/>
			<point x="125" y="409" type="curve"/>
			<point x="144" y="358" type="line"/>
			<point x="184" y="399"/>
			<point x="237" y="422"/>
			<point x="293" y="422" type="curve" smooth="yes"/>
			<point x="371" y="422"/>
			<point x="414" y="378"/>
			<point x="414" y="300" type="curve" smooth="yes"/>
		</contour>
	</outline>
	<anchor name="bottom" x="288" y="0"/>
	<anchor name="top" x="288" y="482"/>
	<note>
		n
	</note>
</glyph>
<glyph name="o" format="2">
	<unicode hex="006F"/>
	<advance width="569"/>
	<outline>
		<contour>
			<point x="278" y="-10" type="curve" smooth="yes"/>
			<point x="420" y="-10"/>
			<point x="516" y="93"/>
			<point x="516" y="247" type="curve" smooth="yes"/>
			<point x="516" y="396"/>
			<point x="427" y="492"/>
			<point x="290" y="492" type="curve" smooth="yes"/>
			<point x="148" y="492"/>
			<point x="53" y="390"/>
			<point x="53" y="236" type="curve" smooth="yes"/>
			<point x="53" y="87"/>
			<point x="141" y="-10"/>
		</contour>
		<contour>
			<point x="289" y="60" type="curve" smooth="yes"/>
			<point x="196" y="60"/>
			<point x="133" y="135"/>
			<point x="133" y="246" type="curve" smooth="yes"/>
			<point x="133" y="353"/>
			<point x="190" y="422"/>
			<point x="279" y="422" type="curve" smooth="yes"/>
			<point x="372" y="422"/>
			<point x="436" y="346"/>
			<point x="436" y="236" type="curve" smooth="yes"/>
			<point x="436" y="130"/>
			<point x="378" y="60"/>
		</contour>
	</outline>
	<anchor name="bottom" x="285" y="0"/>
	<anchor name="center" x="285" y="241"/>
	<anchor name="ogonek" x="370" y="10"/>
	<anchor name="top" x="285" y="482"/>
	<anchor name="topright" x="509" y="482"/>
	<note>
		o
	</note>
</glyph>
<glyph name="u" format="2">
	<unicode hex="0075"/>
	<advance width="561"/>
	<outline>
		<contour>
			<point x="476" y="482" type="line"/>
			<point x="396" y="482" type="line"/>
			<point x="396" y="56" type="line"/>
			<point x="420" y="0" type="line"/>
			<point x="476" y="0" type="line"/>
		</contour>
		<contour>
			<point x="156" y="482" type="line"/>
			<point x="76" y="482" type="line"/>
			<point x="76" y="166" type="line" smooth="yes"/>
			<point x="76" y="59"/>
			<point x="147" y="-10"/>
			<point x="250" y="-10" type="curve" smooth="yes"/>
			<point x="318" y="-10"/>
			<point x="387" y="20"/>
			<point x="436" y="73" type="curve"/>
			<point x="417" y="124" type="line"/>
			<point x="379" y="83"/>
			<point x="326" y="60"/>
			<point x="274" y="60" type="curve" smooth="yes"/>
			<point x="199" y="60"/>
			<point x="156" y="104"/>
			<point x="156" y="182" type="curve" smooth="yes"/>
		</contour>
	</outline>
	<anchor name="bottom" x="275" y="0"/>
	<anchor name="ogonek" x="454" y="10"/>
	<anchor name="top" x="275" y="482"/>
	<anchor name="topright" x="533" y="482"/>
	<note>
		u
	</note>
</glyph>
<glyph name="copyright" format="2">
	<unicode hex="00A9"/>
	<advance width="892"/>
	<outline>
		<contour>
			<point x="442" y="-3" type="curve" smooth="yes"/>
			<point x="660" y="-3"/>
			<point x="806" y="140"/>
			<point x="806" y="354" type="curve" smooth="yes"/>
			<point x="806" y="564"/>
			<point x="664" y="704"/>
			<point x="450" y="704" type="curve" smooth="yes"/>
			<point x="232" y="704"/>
			<point x="87" y="560"/>
			<point x="87" y="344" type="curve" smooth="yes"/>
			<point x="87" y="136"/>
			<point x="229" y="-3"/>
		</contour>
		<contour>
			<point x="452" y="59" type="curve" smooth="yes"/>
			<point x="270" y="59"/>
			<point x="149" y="177"/>
			<point x="149" y="354" type="curve" smooth="yes"/>
			<point x="149" y="527"/>
			<point x="266" y="642"/>
			<point x="442" y="642" type="curve" smooth="yes"/>
			<point x="623" y="642"/>
			<point x="744" y="523"/>
			<point x="744" y="344" type="curve" smooth="yes"/>
			<point x="744" y="173"/>
			<point x="627" y="59"/>
		</contour>
		<contour>
			<point x="457" y="134" type="curve" smooth="yes"/>
			<point x="500" y="134"/>
			<point x="547" y="143"/>
			<point x="584" y="160" type="curve"/>
			<point x="566" y="219" type="line"/>
			<point x="538" y="209"/>
			<point x="504" y="202"/>
			<point x="475" y="202" type="curve" smooth="yes"/>
			<point x="385" y="202"/>
			<point x="327" y="262"/>
			<point x="327" y="355" type="curve" smooth="yes"/>
			<point x="327" y="442"/>
			<point x="378" y="494"/>
			<point x="466" y="494" type="curve" smooth="yes"/>
			<point x="498" y="494"/>
			<point x="535" y="487"/>
			<point x="566" y="475" type="curve"/>
			<point x="587" y="538" type="line"/>
			<point x="552" y="554"/>
			<point x="512" y="562"/>
			<point x="470" y="562" type="curve" smooth="yes"/>
			<point x="335" y="562"/>
			<point x="245" y="475"/>
			<point x="245" y="343" type="curve" smooth="yes"/>
			<point x="245" y="217"/>
			<point x="329" y="134"/>
		</contour>
	</outline>
</glyph>
<glyph name="Thorn" format="2">
	<unicode hex="00DE"/>
	<advance width="624"/>
	<outline>
		<contour>
			<point x="106" y="0" type="line"/>
			<point x="189" y="0" type="line"/>
			<point x="189" y="694" type="line"/>
			<point x="106" y="694" type="line"/>
		</contour>
		<contour>
			<point x="159" y="139" type="line"/>
			<point x="312" y="139" type="line" smooth="yes"/>
			<point x="465" y="139"/>
			<point x="566" y="229"/>
			<point x="566" y="365" type="curve" smooth="yes"/>
			<point x="566" y="499"/>
			<point x="467" y="591"/>
			<point x="322" y="591" type="curve" smooth="yes"/>
			<point x="159" y="591" type="line"/>
			<point x="159" y="519" type="line"/>
			<point x="312" y="519" type="line" smooth="yes"/>
			<point x="416" y="519"/>
			<point x="481" y="456"/>
			<point x="481" y="355" type="curve" smooth="yes"/>
			<point x="481" y="261"/>
			<point x="425" y="211"/>
			<point x="322" y="211" type="curve" smooth="yes"/>
			<point x="159" y="211" type="line"/>
		</contour>
	</outline>
</glyph>
<glyph name="eth" format="2">
	<unicode hex="00F0"/>
	<advance width="558"/>
	<outline>
		<contour>
			<point x="268" y="-9" type="curve" smooth="yes"/>
			<point x="413" y="-9"/>
			<point x="496" y="94"/>
			<point x="496" y="273" type="curve" smooth="yes"/>
			<point x="496" y="499"/>
			<point x="378" y="662"/>
			<point x="152" y="748" type="curve"/>
			<point x="132" y="688" type="line"/>
			<point x="316" y="609"/>
			<point x="424" y="467"/>
			<point x="424" y="305" type="curve"/>
			<point x="446" y="327" type="line"/>
			<point x="414" y="404"/>
			<point x="347" y="449"/>
			<point x="262" y="449" type="curve" smooth="yes"/>
			<point x="135" y="449"/>
			<point x="51" y="355"/>
			<point x="51" y="215" type="curve" smooth="yes"/>
			<point x="51" y="81"/>
			<point x="138" y="-9"/>
		</contour>
		<contour>
			<point x="276" y="61" type="curve" smooth="yes"/>
			<point x="187" y="61"/>
			<point x="131" y="126"/>
			<point x="131" y="230" type="curve" smooth="yes"/>
			<point x="131" y="325"/>
			<point x="178" y="379"/>
			<point x="261" y="379" type="curve" smooth="yes"/>
			<point x="355" y="379"/>
			<point x="418" y="313"/>
			<point x="418" y="213" type="curve" smooth="yes"/>
			<point x="418" y="121"/>
			<point x="361" y="61"/>
		</contour>
		<contour>
			<point x="162" y="547" type="line"/>
			<point x="422" y="683" type="line"/>
			<point x="397" y="729" type="line"/>
			<point x="137" y="593" type="line"/>
		</contour>
	</outline>
</glyph>
<glyph name="eng" format="2">
	<unicode hex="014B"/>
	<advance width="570"/>
	<outline>
		<contour>
			<point x="85" y="0" type="line"/>
			<point x="165" y="0" type="line"/>
			<point x="165" y="426" type="line"/>
			<point x="141" y="482" type="line"/>
			<point x="85" y="482" type="line"/>
		</contour>
		<contour>
			<point x="414" y="0" type="line"/>
			<point x="494" y="0" type="line"/>
			<point x="494" y="316" type="line" smooth="yes"/>
			<point x="494" y="423"/>
			<point x="423" y="492"/>
			<point x="315" y="492" type="curve" smooth="yes"/>
			<point x="245" y="492"/>
			<point x="176" y="462"/>
			<point x="125" y="409" type="curve"/>
			<point x="144" y="358" type="line"/>
			<point x="184" y="399"/>
			<point x="237" y="422"/>
			<point x="293" y="422" type="curve" smooth="yes"/>
			<point x="371" y="422"/>
			<point x="414" y="378"/>
			<point x="414" y="300" type="curve" smooth="yes"/>
		</contour>
		<contour>
			<point x="371" y="-227" type="line"/>
			<point x="445" y="-194"/>
			<point x="494" y="-113"/>
			<point x="494" y="-23" type="curve" smooth="yes"/>
			<point x="494" y="0" type="line"/>
			<point x="414" y="0" type="line"/>
			<point x="414" y="-35" type="line" smooth="yes"/>
			<point x="414" y="-98"/>
			<point x="386" y="-155"/>
			<point x="344" y="-179" type="curve"/>
		</contour>
	</outline>
</glyph>
<glyph name="oe" format="2">
	<unicode hex="0153"/>
	<advance width="913"/>
	<outline>
		<contour>
			<point x="278" y="-10" type="curve" smooth="yes"/>
			<point x="420" y="-10"/>
			<point x="506" y="93"/>
			<point x="506" y="247" type="curve" smooth="yes"/>
			<point x="506" y="396"/>
			<point x="427" y="492"/>
			<point x="290" y="492" type="curve" smooth="yes"/>
			<point x="148" y="492"/>
			<point x="53" y="390"/>
			<point x="53" y="236" type="curve" smooth="yes"/>
			<point x="53" y="87"/>
			<point x="141" y="-10"/>
		</contour>
		<contour>
			<point x="289" y="60" type="curve" smooth="yes"/>
			<point x="196" y="60"/>
			<point x="133" y="135"/>
			<point x="133" y="246" type="curve" smooth="yes"/>
			<point x="133" y="353"/>
			<point x="190" y="422"/>
			<point x="279" y="422" type="curve" smooth="yes"/>
			<point x="372" y="422"/>
			<point x="436" y="346"/>
			<point x="436" y="236" type="curve" smooth="yes"/>
			<point x="436" y="130"/>
			<point x="378" y="60"/>
		</contour>
		<contour>
			<point x="684" y="-10" type="curve" smooth="yes"/>
			<point x="737" y="-10"/>
			<point x="784" y="1"/>
			<point x="842" y="27" type="curve"/>
			<point x="825" y="83" type="line"/>
			<point x="780" y="64"/>
			<point x="738" y="55"/>
			<point x="699" y="55" type="curve" smooth="yes"/>
			<point x="585" y="55"/>
			<point x="518" y="130"/>
			<point x="518" y="255" type="curve" smooth="yes"/>
			<point x="518" y="364"/>
			<point x="567" y="424"/>
			<point x="655" y="424" type="curve" smooth="yes"/>
			<point x="737" y="424"/>
			<point x="785" y="371"/>
			<point x="785" y="279" type="curve"/>
			<point x="504" y="279" type="line"/>
			<point x="504" y="219" type="line"/>
			<point x="856" y="219" type="line"/>
			<point x="858" y="234"/>
			<point x="860" y="269"/>
			<point x="860" y="288" type="curve" smooth="yes"/>
			<point x="860" y="409"/>
			<point x="780" y="492"/>
			<point x="661" y="492" type="curve" smooth="yes"/>
			<point x="527" y="492"/>
			<point x="436" y="388"/>
			<point x="436" y="236" type="curve" smooth="yes"/>
			<point x="436" y="82"/>
			<point x="529" y="-10"/>
		</contour>
	</outline>
	<anchor name="bottom" x="457" y="0"/>
	<anchor name="top" x="457" y="482"/>
</glyph>
<glyph name="dieresistonos" format="2">
	<unicode hex="0385"/>
	<advance width="600"/>
	<outline>
		<contour>
			<point x="388" y="597" type="curve" smooth="yes"/>
			<point x="422" y="597"/>
			<point x="441" y="619"/>
			<point x="441" y="652" type="curve" smooth="yes"/>
			<point x="441" y="685"/>
			<point x="422" y="707"/>
			<point x="388" y="707" type="curve" smooth="yes"/>
			<point x="354" y="707"/>
			<point x="335" y="685"/>
			<point x="335" y="652" type="curve" smooth="yes"/>
			<point x="335" y="619"/>
			<point x="354" y="597"/>
		</contour>
		<contour>
			<point x="258" y="556" type="line"/>
			<point x="312" y="739" type="line"/>
			<point x="231" y="739" type="line"/>
			<point x="210" y="556" type="line"/>
		</contour>
		<contour>
			<point x="127" y="597" type="curve" smooth="yes"/>
			<point x="161" y="597"/>
			<point x="180" y="619"/>
			<point x="180" y="652" type="curve" smooth="yes"/>
			<point x="180" y="685"/>
			<point x="161" y="707"/>
			<point x="127" y="707" type="curve" smooth="yes"/>
			<point x="93" y="707"/>
			<point x="74" y="685"/>
			<point x="74" y="652" type="curve" smooth="yes"/>
			<point x="74" y="619"/>
			<point x="93" y="597"/>
		</contour>
	</outline>
	<anchor name="_top" x="234" y="482"/>
</glyph>
<glyph name="Delta" format="2">
	<unicode hex="0394"/>
	<advance width="690"/>
	<outline>
		<contour>
			<point x="58" y="0" type="line"/>
			<point x="125" y="0" type="line"/>
			<point x="352" y="636" type="line"/>
			<point x="343" y="636" type="line"/>
			<point x="557" y="0" type="line"/>
			<point x="631" y="0" type="line"/>
			<point x="631" y="53" type="line"/>
			<point x="406" y="694" type="line"/>
			<point x="298" y="694" type="line"/>
			<point x="58" y="53" type="line"/>
		</contour>
		<contour>
			<point x="108" y="72" type="line"/>
			<point x="108" y="0" type="line"/>
			<point x="581" y="0" type="line"/>
			<point x="581" y="72" type="line"/>
		</contour>
	</outline>
	<anchor name="bottom" x="345" y="0"/>
	<anchor name="top" x="345" y="694"/>
</glyph>
<glyph name="Sigma" format="2">
	<unicode hex="03A3"/>
	<advance width="634"/>
	<outline>
		<contour>
			<point x="402" y="357" type="line"/>
			<point x="136" y="40" type="line"/>
			<point x="124" y="72" type="line"/>
			<point x="582" y="72" type="line"/>
			<point x="582" y="0" type="line"/>
			<point x="52" y="0" type="line"/>
			<point x="52" y="53" type="line"/>
			<point x="347" y="404" type="line"/>
			<point x="347" y="306" type="line"/>
			<point x="60" y="641" type="line"/>
			<point x="60" y="694" type="line"/>
			<point x="570" y="694" type="line"/>
			<point x="570" y="622" type="line"/>
			<point x="132" y="622" type="line"/>
			<point x="155" y="646" type="line"/>
		</contour>
	</outline>
</glyph>
<glyph name="Phi" format="2">
	<unicode hex="03A6"/>
	<advance width="826"/>
	<outline>
		<contour>
			<point x="407" y="71" type="curve" smooth="yes"/>
			<point x="629" y="71"/>
			<point x="766" y="184"/>
			<point x="766" y="350" type="curve" smooth="yes"/>
			<point x="766" y="514"/>
			<point x="628" y="625"/>
			<point x="416" y="625" type="curve" smooth="yes"/>
			<point x="196" y="625"/>
			<point x="60" y="511"/>
			<point x="60" y="343" type="curve" smooth="yes"/>
			<point x="60" y="181"/>
			<point x="197" y="71"/>
		</contour>
		<contour>
			<point x="416" y="144" type="curve" smooth="yes"/>
			<point x="250" y="144"/>
			<point x="145" y="230"/>
			<point x="145" y="350" type="curve" smooth="yes"/>
			<point x="145" y="467"/>
			<point x="248" y="552"/>
			<point x="406" y="552" type="curve" smooth="yes"/>
			<point x="575" y="552"/>
			<point x="681" y="465"/>
			<point x="681" y="343" type="curve" smooth="yes"/>
			<point x="681" y="228"/>
			<point x="577" y="144"/>
		</contour>
		<contour>
			<point x="371" y="-10" type="line"/>
			<point x="454" y="-10" type="line"/>
			<point x="454" y="704" type="line"/>
			<point x="371" y="704" type="line"/>
		</contour>
	</outline>
</glyph>
<glyph name="delta" format="2">
	<unicode hex="03B4"/>
	<advance width="564"/>
	<outline>
		<contour>
			<point x="273" y="477" type="line"/>
			<point x="147" y="415"/>
			<point x="53" y="326"/>
			<point x="53" y="205" type="curve" smooth="yes"/>
			<point x="53" y="75"/>
			<point x="140" y="-10"/>
			<point x="277" y="-10" type="curve" smooth="yes"/>
			<point x="417" y="-10"/>
			<point x="511" y="91"/>
			<point x="511" y="229" type="curve" smooth="yes"/>
			<point x="511" y="362"/>
			<point x="411" y="424"/>
			<point x="301" y="486" type="curve" smooth="yes"/>
			<point x="210" y="537"/>
			<point x="161" y="571"/>
			<point x="161" y="616" type="curve" smooth="yes"/>
			<point x="161" y="654"/>
			<point x="200" y="682"/>
			<point x="263" y="682" type="curve" smooth="yes"/>
			<point x="319" y="682"/>
			<point x="372" y="667"/>
			<point x="436" y="638" type="curve"/>
			<point x="456" y="699" type="line"/>
			<point x="389" y="730"/>
			<point x="334" y="749"/>
			<point x="265" y="749" type="curve" smooth="yes"/>
			<point x="161" y="749"/>
			<point x="85" y="694"/>
			<point x="85" y="611" type="curve" smooth="yes"/>
			<point x="85" y="531"/>
			<point x="162" y="482"/>
			<point x="264" y="426" type="curve" smooth="yes"/>
			<point x="357" y="375"/>
			<point x="431" y="326"/>
			<point x="431" y="221" type="curve" smooth="yes"/>
			<point x="431" y="130"/>
			<point x="373" y="60"/>
			<point x="284" y="60" type="curve" smooth="yes"/>
			<point x="191" y="60"/>
			<point x="133" y="128"/>
			<point x="133" y="211" type="curve" smooth="yes"/>
			<point x="133" y="290"/>
			<point x="190" y="365"/>
			<point x="307" y="428" type="curve"/>
		</contour>
	</outline>
	<anchor name="topright" x="505" y="482"/>
</glyph>
<glyph name="eta" format="2">
	<unicode hex="03B7"/>
	<advance width="566"/>
	<outline>
		<contour>
			<point x="85" y="0" type="line"/>
			<point x="165" y="0" type="line"/>
			<point x="165" y="426" type="line"/>
			<point x="141" y="482" type="line"/>
			<point x="85" y="482" type="line"/>
		</contour>
		<contour>
			<point x="489" y="-217" type="line"/>
			<point x="489" y="316" type="line" smooth="yes"/>
			<point x="489" y="425"/>
			<point x="420" y="492"/>
			<point x="313" y="492" type="curve" smooth="yes"/>
			<point x="245" y="492"/>
			<point x="176" y="462"/>
			<point x="125" y="409" type="curve"/>
			<point x="144" y="358" type="line"/>
			<point x="184" y="399"/>
			<point x="237" y="422"/>
			<point x="291" y="422" type="curve" smooth="yes"/>
			<point x="368" y="422"/>
			<point x="409" y="380"/>
			<point x="409" y="302" type="curve" smooth="yes"/>
			<point x="409" y="-217" type="line"/>
		</contour>
	</outline>
	<anchor name="bottom" x="283" y="0"/>
	<anchor name="top" x="288" y="482"/>
</glyph>
<glyph name="kappa" format="2">
	<unicode hex="03BA"/>
	<advance width="511"/>
	<outline>
		<contour>
			<point x="85" y="0" type="line"/>
			<point x="165" y="0" type="line"/>
			<point x="165" y="482" type="line"/>
			<point x="85" y="482" type="line"/>
		</contour>
		<contour>
			<point x="259" y="299" type="line"/>
			<point x="212" y="241" type="line"/>
			<point x="388" y="0" type="line"/>
			<point x="491" y="0" type="line"/>
		</contour>
		<contour>
			<point x="227" y="340" type="curve" smooth="yes"/>
			<point x="144" y="226" type="line"/>
			<point x="144" y="118" type="line"/>
			<point x="269" y="283" type="line" smooth="yes"/>
			<point x="345" y="384"/>
			<point x="388" y="423"/>
			<point x="433" y="423" type="curve" smooth="yes"/>
			<point x="449" y="423"/>
			<point x="460" y="421"/>
			<point x="471" y="418" type="curve"/>
			<point x="489" y="477" type="line"/>
			<point x="466" y="486"/>
			<point x="447" y="490"/>
			<point x="424" y="490" type="curve" smooth="yes"/>
			<point x="361" y="490"/>
			<point x="311" y="456"/>
		</contour>
	</outline>
</glyph>
<glyph name="mu" format="2">
	<unicode hex="03BC"/>
	<advance width="580"/>
	<outline>
		<contour>
			<point x="170" y="-217" type="line"/>
			<point x="157" y="33" type="line"/>
			<point x="165" y="33" type="line"/>
			<point x="165" y="482" type="line"/>
			<point x="85" y="482" type="line"/>
			<point x="85" y="-217" type="line" smooth="yes"/>
		</contour>
		<contour>
			<point x="165" y="482" type="move"/>
			<point x="85" y="482" type="line"/>
		</contour>
		<contour>
			<point x="142" y="148" type="curve"/>
			<point x="91" y="105" type="line"/>
			<point x="159" y="4"/>
			<point x="230" y="-10"/>
			<point x="279" y="-10" type="curve" smooth="yes"/>
			<point x="335" y="-10"/>
			<point x="397" y="26"/>
			<point x="445" y="74" type="curve"/>
			<point x="421" y="122" type="line"/>
			<point x="385" y="83"/>
			<point x="337" y="60"/>
			<point x="287" y="60" type="curve" smooth="yes"/>
			<point x="254" y="60"/>
			<point x="195" y="70"/>
		</contour>
		<contour>
			<point x="400" y="482" type="line"/>
			<point x="400" y="102" type="line" smooth="yes"/>
			<point x="400" y="34"/>
			<point x="438" y="-6"/>
			<point x="501" y="-6" type="curve" smooth="yes"/>
			<point x="528" y="-6"/>
			<point x="553" y="1"/>
			<point x="573" y="10" type="curve"/>
			<point x="557" y="65" type="line"/>
			<point x="548" y="61"/>
			<point x="536" y="58"/>
			<point x="524" y="58" type="curve" smooth="yes"/>
			<point x="496" y="58"/>
			<point x="480" y="79"/>
			<point x="480" y="124" type="curve" smooth="yes"/>
			<point x="480" y="482" type="line"/>
		</contour>
	</outline>
	<anchor name="top" x="285" y="482"/>
</glyph>
<glyph name="nu" format="2">
	<unicode hex="03BD"/>
	<advance width="513"/>
	<outline>
		<contour>
			<point x="238" y="17" type="line"/>
			<point x="287" y="17" type="line"/>
			<point x="115" y="482" type="line"/>
			<point x="26" y="482" type="line"/>
			<point x="223" y="0" type="line"/>
			<point x="299" y="0" type="line"/>
			<point x="361" y="124" type="line" smooth="yes"/>
			<point x="420" y="242"/>
			<point x="473" y="380"/>
			<point x="475" y="482" type="curve"/>
			<point x="392" y="482" type="line"/>
			<point x="391" y="385"/>
			<point x="354" y="263"/>
			<point x="303" y="155" type="curve" smooth="yes"/>
		</contour>
	</outline>
	<anchor name="bottom" x="254" y="0"/>
	<anchor name="top" x="254" y="482"/>
</glyph>
<glyph name="sigmafinal" format="2">
	<unicode hex="03C2"/>
	<advance width="464"/>
	<outline>
		<contour>
			<point x="135" y="241" type="curve"/>
			<point x="135" y="146"/>
			<point x="192" y="96"/>
			<point x="284" y="68" type="curve" smooth="yes"/>
			<point x="382" y="38"/>
			<point x="434" y="6"/>
			<point x="434" y="-65" type="curve" smooth="yes"/>
			<point x="434" y="-117"/>
			<point x="399" y="-171"/>
			<point x="345" y="-227" type="curve"/>
			<point x="297" y="-187" type="line"/>
			<point x="331" y="-149"/>
			<point x="359" y="-118"/>
			<point x="359" y="-79" type="curve" smooth="yes"/>
			<point x="359" y="-43"/>
			<point x="334" y="-23"/>
			<point x="251" y="1" type="curve" smooth="yes"/>
			<point x="139" y="34"/>
			<point x="53" y="98"/>
			<point x="53" y="224" type="curve" smooth="yes"/>
			<point x="53" y="388"/>
			<point x="150" y="492"/>
			<point x="292" y="492" type="curve" smooth="yes"/>
			<point x="340" y="492"/>
			<point x="387" y="481"/>
			<point x="431" y="460" type="curve"/>
			<point x="412" y="395" type="line"/>
			<point x="372" y="413"/>
			<point x="329" y="422"/>
			<point x="291" y="422" type="curve" smooth="yes"/>
			<point x="191" y="422"/>
			<point x="135" y="360"/>
		</contour>
	</outline>
</glyph>
<glyph name="De-cy" format="2">
	<unicode hex="0414"/>
	<advance width="778"/>
	<outline>
		<contour>
			<point x="97" y="7" type="line"/>
			<point x="233" y="34"/>
			<point x="304" y="204"/>
			<point x="304" y="502" type="curve" smooth="yes"/>
			<point x="304" y="624" type="line"/>
			<point x="567" y="624" type="line"/>
			<point x="567" y="40" type="line"/>
			<point x="648" y="40" type="line"/>
			<point x="648" y="694" type="line"/>
			<point x="223" y="694" type="line"/>
			<point x="223" y="502" type="line" smooth="yes"/>
			<point x="223" y="256"/>
			<point x="175" y="102"/>
			<point x="87" y="67" type="curve"/>
		</contour>
		<contour>
			<point x="44" y="-178" type="line"/>
			<point x="119" y="-178" type="line"/>
			<point x="119" y="0" type="line"/>
			<point x="659" y="0" type="line"/>
			<point x="659" y="-178" type="line"/>
			<point x="734" y="-178" type="line"/>
			<point x="734" y="71" type="line"/>
			<point x="44" y="71" type="line"/>
		</contour>
	</outline>
</glyph>
<glyph name="Ii-cy" format="2">
	<unicode hex="0418"/>
	<advance width="768"/>
	<outline>
		<contour>
			<point x="106" y="0" type="line"/>
			<point x="195" y="0" type="line"/>
			<point x="599" y="605" type="line"/>
			<point x="581" y="605" type="line"/>
			<point x="581" y="0" type="line"/>
			<point x="662" y="0" type="line"/>
			<point x="662" y="694" type="line"/>
			<point x="570" y="694" type="line"/>
			<point x="168" y="87" type="line"/>
			<point x="187" y="87" type="line"/>
			<point x="187" y="694" type="line"/>
			<point x="106" y="694" type="line"/>
		</contour>
	</outline>
	<anchor name="bottomright" x="748" y="0"/>
	<anchor name="top" x="384" y="694"/>
</glyph>
<glyph name="Tse-cy" format="2">
	<unicode hex="0426"/>
	<advance width="746"/>
	<outline>
		<contour>
			<point x="627" y="-178" type="line"/>
			<point x="702" y="-178" type="line"/>
			<point x="702" y="71" type="line"/>
			<point x="188" y="71" type="line"/>
			<point x="188" y="694" type="line"/>
			<point x="106" y="694" type="line"/>
			<point x="106" y="0" type="line"/>
			<point x="627" y="0" type="line"/>
		</contour>
		<contour>
			<point x="529" y="30" type="line"/>
			<point x="611" y="30" type="line"/>
			<point x="611" y="694" type="line"/>
			<point x="529" y="694" type="line"/>
		</contour>
	</outline>
</glyph>
<glyph name="Che-cy" format="2">
	<unicode hex="0427"/>
	<advance width="662"/>
	<outline>
		<contour>
			<point x="283" y="252" type="curve" smooth="yes"/>
			<point x="359" y="252"/>
			<point x="450" y="278"/>
			<point x="512" y="331" type="curve"/>
			<point x="495" y="383" type="line"/>
			<point x="451" y="350"/>
			<point x="380" y="323"/>
			<point x="305" y="323" type="curve" smooth="yes"/>
			<point x="212" y="323"/>
			<point x="153" y="367"/>
			<point x="153" y="445" type="curve" smooth="yes"/>
			<point x="153" y="694" type="line"/>
			<point x="71" y="694" type="line"/>
			<point x="71" y="428" type="line" smooth="yes"/>
			<point x="71" y="321"/>
			<point x="156" y="252"/>
		</contour>
		<contour>
			<point x="474" y="0" type="line"/>
			<point x="556" y="0" type="line"/>
			<point x="556" y="694" type="line"/>
			<point x="474" y="694" type="line"/>
		</contour>
	</outline>
	<anchor name="bottomright" x="557" y="0"/>
	<anchor name="top" x="333" y="694"/>
</glyph>
<glyph name="de-cy" format="2">
	<unicode hex="0434"/>
	<advance width="582"/>
	<outline>
		<contour>
			<point x="72" y="0" type="line"/>
			<point x="172" y="12"/>
			<point x="230" y="141"/>
			<point x="230" y="343" type="curve" smooth="yes"/>
			<point x="230" y="415" type="line"/>
			<point x="401" y="415" type="line"/>
			<point x="401" y="23" type="line"/>
			<point x="478" y="23" type="line"/>
			<point x="478" y="482" type="line"/>
			<point x="156" y="482" type="line"/>
			<point x="156" y="342" type="line" smooth="yes"/>
			<point x="156" y="194"/>
			<point x="122" y="90"/>
			<point x="60" y="65" type="curve"/>
		</contour>
		<contour>
			<point x="27" y="-126" type="line"/>
			<point x="99" y="-126" type="line"/>
			<point x="99" y="0" type="line"/>
			<point x="483" y="0" type="line"/>
			<point x="483" y="-126" type="line"/>
			<point x="555" y="-126" type="line"/>
			<point x="555" y="67" type="line"/>
			<point x="27" y="67" type="line"/>
		</contour>
	</outline>
</glyph>
<glyph name="ka-cy" format="2">
	<unicode hex="043A"/>
	<advance width="516"/>
	<outline>
		<contour>
			<point x="402" y="0" type="line"/>
			<point x="496" y="0" type="line"/>
			<point x="325" y="267" type="line"/>
			<point x="328" y="249" type="line"/>
			<point x="487" y="482" type="line"/>
			<point x="398" y="482" type="line"/>
			<point x="242" y="251" type="line"/>
		</contour>
		<contour>
			<point x="85" y="0" type="line"/>
			<point x="166" y="0" type="line"/>
			<point x="166" y="482" type="line"/>
			<point x="85" y="482" type="line"/>
		</contour>
		<contour>
			<point x="120" y="219" type="line"/>
			<point x="282" y="219" type="line"/>
			<point x="282" y="284" type="line"/>
			<point x="120" y="284" type="line"/>
		</contour>
	</outline>
	<anchor name="bottomright" x="462" y="0"/>
	<anchor name="top" x="262" y="482"/>
</glyph>
<glyph name="shcha-cy" format="2">
	<unicode hex="0449"/>
	<advance width="855"/>
	<outline>
		<contour>
			<point x="750" y="-126" type="line"/>
			<point x="825" y="-126" type="line"/>
			<point x="825" y="66" type="line"/>
			<point x="165" y="66" type="line"/>
			<point x="165" y="482" type="line"/>
			<point x="85" y="482" type="line"/>
			<point x="85" y="0" type="line"/>
			<point x="750" y="0" type="line"/>
		</contour>
		<contour>
			<point x="381" y="32" type="line"/>
			<point x="460" y="32" type="line"/>
			<point x="460" y="482" type="line"/>
			<point x="381" y="482" type="line"/>
		</contour>
		<contour>
			<point x="676" y="32" type="line"/>
			<point x="756" y="32" type="line"/>
			<point x="756" y="482" type="line"/>
			<point x="676" y="482" type="line"/>
		</contour>
	</outline>
</glyph>
<glyph name="iu-cy" format="2">
	<unicode hex="044E"/>
	<advance width="755"/>
	<outline>
		<contour>
			<point x="468" y="-6" type="curve" smooth="yes"/>
			<point x="608" y="-6"/>
			<point x="703" y="96"/>
			<point x="703" y="244" type="curve" smooth="yes"/>
			<point x="703" y="390"/>
			<point x="611" y="488"/>
			<point x="474" y="488" type="curve" smooth="yes"/>
			<point x="337" y="488"/>
			<point x="250" y="390"/>
			<point x="250" y="238" type="curve" smooth="yes"/>
			<point x="250" y="89"/>
			<point x="334" y="-6"/>
		</contour>
		<contour>
			<point x="85" y="0" type="line"/>
			<point x="163" y="0" type="line"/>
			<point x="163" y="482" type="line"/>
			<point x="85" y="482" type="line"/>
		</contour>
		<contour>
			<point x="141" y="213" type="line"/>
			<point x="284" y="213" type="line"/>
			<point x="284" y="278" type="line"/>
			<point x="141" y="278" type="line"/>
		</contour>
		<contour>
			<point x="473" y="61" type="curve" smooth="yes"/>
			<point x="386" y="61"/>
			<point x="328" y="133"/>
			<point x="328" y="244" type="curve" smooth="yes"/>
			<point x="328" y="353"/>
			<point x="383" y="421"/>
			<point x="469" y="421" type="curve" smooth="yes"/>
			<point x="561" y="421"/>
			<point x="625" y="345"/>
			<point x="625" y="238" type="curve" smooth="yes"/>
			<point x="625" y="134"/>
			<point x="564" y="61"/>
		</contour>
	</outline>
	<anchor name="top" x="378" y="482"/>
</glyph>
<glyph name="cheverticalstroke-cy" format="2">
	<unicode hex="04B9"/>
	<advance width="547"/>
	<outline>
		<contour>
			<point x="227" y="171" type="curve" smooth="yes"/>
			<point x="292" y="171"/>
			<point x="367" y="192"/>
			<point x="412" y="226" type="curve"/>
			<point x="397" y="277" type="line"/>
			<point x="358" y="255"/>
			<point x="300" y="241"/>
			<point x="252" y="241" type="curve" smooth="yes"/>
			<point x="178" y="241"/>
			<point x="132" y="276"/>
			<point x="132" y="336" type="curve" smooth="yes"/>
			<point x="132" y="482" type="line"/>
			<point x="51" y="482" type="line"/>
			<point x="51" y="301" type="line" smooth="yes"/>
			<point x="51" y="222"/>
			<point x="121" y="171"/>
		</contour>
		<contour>
			<point x="381" y="0" type="line"/>
			<point x="462" y="0" type="line"/>
			<point x="462" y="482" type="line"/>
			<point x="381" y="482" type="line"/>
		</contour>
		<contour>
			<point x="226" y="53" type="line"/>
			<point x="289" y="53" type="line"/>
			<point x="289" y="378" type="line"/>
			<point x="226" y="378" type="line"/>
		</contour>
	</outline>
</glyph>
<glyph name="guilsinglleft" format="2">
	<unicode hex="2039"/>
	<advance width="325"/>
	<outline>
		<contour>
			<point x="188" y="30" type="line"/>
			<point x="278" y="30" type="line"/>
			<point x="122" y="268" type="line"/>
			<point x="122" y="221" type="line"/>
			<point x="273" y="452" type="line"/>
			<point x="192" y="452" type="line"/>
			<point x="48" y="242" type="line"/>
		</contour>
	</outline>
</glyph>
<glyph name="euro" format="2">
	<unicode hex="20AC"/>
	<advance width="794"/>
	<outline>
		<contour>
			<point x="88" y="404" type="line"/>
			<point x="643" y="404" type="line"/>
			<point x="643" y="464" type="line"/>
			<point x="88" y="464" type="line"/>
		</contour>
		<contour>
			<point x="88" y="244" type="line"/>
			<point x="620" y="244" type="line"/>
			<point x="620" y="304" type="line"/>
			<point x="88" y="304" type="line"/>
		</contour>
		<contour>
			<point x="505" y="-10" type="curve" smooth="yes"/>
			<point x="572" y="-10"/>
			<point x="642" y="5"/>
			<point x="708" y="34" type="curve"/>
			<point x="689" y="95" type="line"/>
			<point x="639" y="75"/>
			<point x="577" y="63"/>
			<point x="524" y="63" type="curve" smooth="yes"/>
			<point x="358" y="63"/>
			<point x="248" y="181"/>
			<point x="248" y="358" type="curve" smooth="yes"/>
			<point x="248" y="527"/>
			<point x="349" y="630"/>
			<point x="516" y="630" type="curve" smooth="yes"/>
			<point x="572" y="630"/>
			<point x="635" y="618"/>
			<point x="688" y="598" type="curve"/>
			<point x="712" y="660" type="line"/>
			<point x="661" y="687"/>
			<point x="589" y="703"/>
			<point x="521" y="703" type="curve" smooth="yes"/>
			<point x="306" y="703"/>
			<point x="163" y="557"/>
			<point x="163" y="339" type="curve" smooth="yes"/>
			<point x="163" y="130"/>
			<point x="300" y="-10"/>
		</contour>
	</outline>
	<anchor name="bottom" x="476" y="0"/>
	<anchor name="top" x="476" y="694"/>
</glyph>
<glyph name="kip" format="2">
	<unicode hex="20AD"/>
	<advance width="720"/>
	<outline>
		<contour>
			<point x="76" y="329" type="line"/>
			<point x="608" y="329" type="line"/>
			<point x="608" y="389" type="line"/>
			<point x="76" y="389" type="line"/>
		</contour>
		<contour>
			<point x="544" y="0" type="line"/>
			<point x="646" y="0" type="line"/>
			<point x="313" y="380" type="line"/>
			<point x="319" y="358" type="line"/>
			<point x="634" y="694" type="line"/>
			<point x="538" y="694" type="line"/>
			<point x="232" y="361" type="line"/>
		</contour>
		<contour>
			<point x="152" y="0" type="line"/>
			<point x="235" y="0" type="line"/>
			<point x="235" y="694" type="line"/>
			<point x="152" y="694" type="line"/>
		</contour>
	</outline>
</glyph>
<glyph name="rupeeIndian" format="2">
	<unicode hex="20B9"/>
	<advance width="680"/>
	<outline>
		<contour>
			<point x="99" y="295" type="line"/>
			<point x="266" y="295" type="line" smooth="yes"/>
			<point x="409" y="295"/>
			<point x="508" y="372"/>
			<point x="508" y="499" type="curve" smooth="yes"/>
			<point x="508" y="625"/>
			<point x="410" y="694"/>
			<point x="276" y="694" type="curve" smooth="yes"/>
			<point x="99" y="694" type="line"/>
			<point x="99" y="632" type="line"/>
			<point x="266" y="632" type="line" smooth="yes"/>
			<point x="363" y="632"/>
			<point x="423" y="584"/>
			<point x="423" y="491" type="curve" smooth="yes"/>
			<point x="423" y="401"/>
			<point x="367" y="359"/>
			<point x="276" y="359" type="curve" smooth="yes"/>
			<point x="99" y="359" type="line"/>
		</contour>
		<contour>
			<point x="479" y="0" type="line"/>
			<point x="578" y="0" type="line"/>
			<point x="363" y="310" type="line"/>
			<point x="268" y="310" type="line"/>
		</contour>
		<contour>
			<point x="99" y="466" type="line"/>
			<point x="591" y="466" type="line"/>
			<point x="591" y="526" type="line"/>
			<point x="99" y="526" type="line"/>
		</contour>
		<contour>
			<point x="99" y="638" type="line"/>
			<point x="591" y="638" type="line"/>
			<point x="591" y="698" type="line"/>
			<point x="99" y="698" type="line"/>
		</contour>
	</outline>
</glyph>
<glyph name="trademark" format="2">
	<unicode hex="2122"/>
	<advance width="817"/>
	<outline>
		<contour>
			<point x="177" y="382" type="line"/>
			<point x="232" y="382" type="line"/>
			<point x="232" y="693" type="line"/>
			<point x="177" y="693" type="line"/>
		</contour>
		<contour>
			<point x="73" y="645" type="line"/>
			<point x="336" y="645" type="line"/>
			<point x="336" y="694" type="line"/>
			<point x="73" y="694" type="line"/>
		</contour>
		<contour>
			<point x="363" y="382" type="line"/>
			<point x="413" y="382" type="line"/>
			<point x="413" y="621" type="line"/>
			<point x="406" y="614" type="line"/>
			<point x="515" y="427" type="line"/>
			<point x="539" y="427" type="line"/>
			<point x="646" y="616" type="line"/>
			<point x="640" y="621" type="line"/>
			<point x="640" y="382" type="line"/>
			<point x="690" y="382" type="line"/>
			<point x="690" y="694" type="line"/>
			<point x="634" y="694" type="line"/>
			<point x="517" y="482" type="line"/>
			<point x="541" y="482" type="line"/>
			<point x="422" y="694" type="line"/>
			<point x="363" y="694" type="line"/>
		</contour>
	</outline>
</glyph>
<glyph name="rightArrow" format="2">
	<unicode hex="2192"/>
	<advance width="691"/>
	<outline>
		<contour>
			<point x="355" y="54" type="line"/>
			<point x="626" y="319" type="line"/>
			<point x="626" y="329" type="line"/>
			<point x="358" y="590" type="line"/>
			<point x="304" y="535" type="line"/>
			<point x="511" y="355" type="line"/>
			<point x="73" y="355" type="line"/>
			<point x="73" y="288" type="line"/>
			<point x="510" y="288" type="line"/>
			<point x="304" y="105" type="line"/>
		</contour>
	</outline>
	<note>
		arrowright
	</note>
</glyph>
<glyph name="partialdiff" format="2">
	<unicode hex="2202"/>
	<advance width="656"/>
	<outline>
		<contour>
			<point x="294" y="-12" type="curve" smooth="yes"/>
			<point x="463" y="-12"/>
			<point x="562" y="128"/>
			<point x="562" y="365" type="curve" smooth="yes"/>
			<point x="562" y="584"/>
			<point x="476" y="701"/>
			<point x="316" y="701" type="curve" smooth="yes"/>
			<point x="254" y="701"/>
			<point x="188" y="684"/>
			<point x="138" y="655" type="curve"/>
			<point x="157" y="594" type="line"/>
			<point x="206" y="617"/>
			<point x="262" y="631"/>
			<point x="307" y="631" type="curve" smooth="yes"/>
			<point x="422" y="631"/>
			<point x="482" y="534"/>
			<point x="482" y="349" type="curve" smooth="yes"/>
			<point x="482" y="160"/>
			<point x="420" y="58"/>
			<point x="304" y="58" type="curve" smooth="yes"/>
			<point x="215" y="58"/>
			<point x="159" y="117"/>
			<point x="159" y="211" type="curve" smooth="yes"/>
			<point x="159" y="302"/>
			<point x="211" y="359"/>
			<point x="296" y="359" type="curve" smooth="yes"/>
			<point x="370" y="359"/>
			<point x="442" y="316"/>
			<point x="484" y="249" type="curve"/>
			<point x="490" y="342" type="line"/>
			<point x="448" y="399"/>
			<point x="386" y="429"/>
			<point x="310" y="429" type="curve" smooth="yes"/>
			<point x="175" y="429"/>
			<point x="79" y="332"/>
			<point x="79" y="197" type="curve" smooth="yes"/>
			<point x="79" y="70"/>
			<point x="164" y="-12"/>
		</contour>
	</outline>
</glyph>
<glyph name="increment" format="2">
	<unicode hex="2206"/>
	<advance width="700"/>
	<outline>
		<contour>
			<point x="70" y="1" type="line"/>
			<point x="630" y="1" type="line"/>
			<point x="630" y="54" type="line"/>
			<point x="400" y="694" type="line"/>
			<point x="303" y="694" type="line"/>
			<point x="70" y="54" type="line"/>
		</contour>
		<contour>
			<point x="153" y="68" type="line"/>
			<point x="346" y="616" type="line"/>
			<point x="540" y="68" type="line"/>
		</contour>
	</outline>
</glyph>
<glyph name="radical" format="2">
	<unicode hex="221A"/>
	<advance width="591"/>
	<outline>
		<contour>
			<point x="289" y="-59" type="line"/>
			<point x="369" y="-59" type="line"/>
			<point x="519" y="739" type="line"/>
			<point x="432" y="739" type="line"/>
			<point x="321" y="59" type="line"/>
			<point x="245" y="303" type="line"/>
			<point x="67" y="303" type="line"/>
			<point x="67" y="231" type="line"/>
			<point x="183" y="231" type="line"/>
		</contour>
	</outline>
</glyph>
<glyph name="approxequal" format="2">
	<unicode hex="2248"/>
	<advance width="642"/>
	<outline>
		<contour>
			<point x="144" y="353" type="line"/>
			<point x="156" y="397"/>
			<point x="192" y="423"/>
			<point x="226" y="423" type="curve" smooth="yes"/>
			<point x="283" y="423"/>
			<point x="314" y="349"/>
			<point x="399" y="349" type="curve" smooth="yes"/>
			<point x="466" y="349"/>
			<point x="529" y="395"/>
			<point x="549" y="473" type="curve"/>
			<point x="492" y="498" type="line"/>
			<point x="477" y="450"/>
			<point x="441" y="427"/>
			<point x="408" y="427" type="curve" smooth="yes"/>
			<point x="349" y="427"/>
			<point x="321" y="501"/>
			<point x="237" y="501" type="curve" smooth="yes"/>
			<point x="168" y="501"/>
			<point x="109" y="452"/>
			<point x="89" y="377" type="curve"/>
		</contour>
		<contour>
			<point x="144" y="127" type="line"/>
			<point x="156" y="171"/>
			<point x="192" y="197"/>
			<point x="226" y="197" type="curve" smooth="yes"/>
			<point x="283" y="197"/>
			<point x="314" y="123"/>
			<point x="399" y="123" type="curve" smooth="yes"/>
			<point x="466" y="123"/>
			<point x="529" y="169"/>
			<point x="549" y="247" type="curve"/>
			<point x="492" y="272" type="line"/>
			<point x="477" y="224"/>
			<point x="441" y="201"/>
			<point x="408" y="201" type="curve" smooth="yes"/>
			<point x="349" y="201"/>
			<point x="321" y="275"/>
			<point x="237" y="275" type="curve" smooth="yes"/>
			<point x="168" y="275"/>
			<point x="109" y="226"/>
			<point x="89" y="151" type="curve"/>
		</contour>
	</outline>
</glyph>
<glyph name="whiteCircle" format="2">
	<unicode hex="25CB"/>
	<advance width="670"/>
	<outline>
		<contour>
			<point x="333" y="110" type="curve" smooth="yes"/>
			<point x="477" y="110"/>
			<point x="578" y="207"/>
			<point x="578" y="349" type="curve" smooth="yes"/>
			<point x="578" y="488"/>
			<point x="479" y="584"/>
			<point x="337" y="584" type="curve" smooth="yes"/>
			<point x="192" y="584"/>
			<point x="92" y="485"/>
			<point x="92" y="343" type="curve" smooth="yes"/>
			<point x="92" y="205"/>
			<point x="191" y="110"/>
		</contour>
		<contour>
			<point x="338" y="178" type="curve" smooth="yes"/>
			<point x="239" y="178"/>
			<point x="170" y="248"/>
			<point x="170" y="349" type="curve" smooth="yes"/>
			<point x="170" y="447"/>
			<point x="236" y="516"/>
			<point x="333" y="516" type="curve" smooth="yes"/>
			<point x="431" y="516"/>
			<point x="500" y="445"/>
			<point x="500" y="343" type="curve" smooth="yes"/>
			<point x="500" y="245"/>
			<point x="433" y="178"/>
		</contour>
	</outline>
	<note>
		circle
	</note>
</glyph>
<glyph name="five.osf" format="2">
	<advance width="559"/>
	<outline>
		<contour>
			<point x="249" y="-110" type="curve" smooth="yes"/>
			<point x="403" y="-110"/>
			<point x="506" y="-23"/>
			<point x="506" y="114" type="curve" smooth="yes"/>
			<point x="506" y="245"/>
			<point x="411" y="326"/>
			<point x="257" y="326" type="curve" smooth="yes"/>
			<point x="227" y="326"/>
			<point x="187" y="322"/>
			<point x="145" y="314" type="curve"/>
			<point x="164" y="289" type="line"/>
			<point x="175" y="526" type="line"/>
			<point x="473" y="526" type="line"/>
			<point x="473" y="594" type="line"/>
			<point x="104" y="594" type="line"/>
			<point x="87" y="240" type="line"/>
			<point x="132" y="250"/>
			<point x="189" y="257"/>
			<point x="231" y="257" type="curve" smooth="yes"/>
			<point x="353" y="257"/>
			<point x="425" y="199"/>
			<point x="425" y="105" type="curve" smooth="yes"/>
			<point x="425" y="15"/>
			<point x="360" y="-41"/>
			<point x="257" y="-41" type="curve" smooth="yes"/>
			<point x="193" y="-41"/>
			<point x="126" y="-22"/>
			<point x="77" y="4" type="curve"/>
			<point x="54" y="-58" type="line"/>
			<point x="116" y="-91"/>
			<point x="182" y="-110"/>
		</contour>
	</outline>
</glyph>
<glyph name="four.dnom" format="2">
	<advance width="474"/>
	<outline>
		<contour>
			<point x="279" y="-5" type="line"/>
			<point x="351" y="-5" type="line"/>
			<point x="351" y="472" type="line"/>
			<point x="281" y="472" type="line"/>
			<point x="31" y="142" type="line"/>
			<point x="31" y="103" type="line"/>
			<point x="442" y="103" type="line"/>
			<point x="442" y="166" type="line"/>
			<point x="88" y="166" type="line"/>
			<point x="97" y="145" type="line"/>
			<point x="284" y="393" type="line"/>
			<point x="279" y="402" type="line"/>
		</contour>
	</outline>
	<note>
		four
	</note>
</glyph>
<glyph name="seven.dnom" format="2">
	<advance width="409"/>
	<outline>
		<contour>
			<point x="89" y="0" type="line"/>
			<point x="168" y="0" type="line"/>
			<point x="379" y="430" type="line"/>
			<point x="379" y="472" type="line"/>
			<point x="28" y="472" type="line"/>
			<point x="28" y="407" type="line"/>
			<point x="316" y="407" type="line"/>
			<point x="302" y="429" type="line"/>
		</contour>
	</outline>
	<note>
		seven
	</note>
</glyph>
<glyph name="two.dnom" format="2">
	<advance width="425"/>
	<outline>
		<contour>
			<point x="49" y="0" type="line"/>
			<point x="379" y="0" type="line"/>
			<point x="379" y="65" type="line"/>
			<point x="132" y="65" type="line"/>
			<point x="135" y="47" type="line"/>
			<point x="298" y="180"/>
			<point x="360" y="259"/>
			<point x="360" y="341" type="curve" smooth="yes"/>
			<point x="360" y="425"/>
			<point x="297" y="479"/>
			<point x="196" y="479" type="curve" smooth="yes"/>
			<point x="135" y="479"/>
			<point x="78" y="459"/>
			<point x="38" y="424" type="curve"/>
			<point x="59" y="371" type="line"/>
			<point x="97" y="398"/>
			<point x="140" y="413"/>
			<point x="182" y="413" type="curve" smooth="yes"/>
			<point x="243" y="413"/>
			<point x="283" y="380"/>
			<point x="283" y="329" type="curve" smooth="yes"/>
			<point x="283" y="265"/>
			<point x="220" y="195"/>
			<point x="49" y="51" type="curve"/>
		</contour>
	</outline>
	<note>
		two
	</note>
</glyph>
